<svg width="35" height="35" viewBox="0 0 35 35" fill="none" xmlns="http://www.w3.org/2000/svg">
<g id="Back Button">
<path id="Vector" fill-rule="evenodd" clip-rule="evenodd" d="M21.8112 11.1582C21.871 11.2082 21.9185 11.2676 21.9509 11.333C21.9833 11.3984 22 11.4685 22 11.5394C22 11.6102 21.9833 11.6803 21.9509 11.7457C21.9185 11.8111 21.871 11.8705 21.8112 11.9205L14.5526 18.0001L21.8112 24.0797C21.9319 24.1808 21.9997 24.3179 21.9997 24.4609C21.9997 24.6039 21.9319 24.741 21.8112 24.8421C21.6905 24.9432 21.5268 25 21.3562 25C21.1855 25 21.0218 24.9432 20.9011 24.8421L13.1888 18.3813C13.129 18.3313 13.0815 18.2719 13.0491 18.2065C13.0167 18.1411 13 18.071 13 18.0001C13 17.9293 13.0167 17.8592 13.0491 17.7938C13.0815 17.7284 13.129 17.669 13.1888 17.619L20.9011 11.1582C20.9608 11.108 21.0318 11.0683 21.1098 11.0411C21.1879 11.014 21.2716 11 21.3562 11C21.4407 11 21.5244 11.014 21.6025 11.0411C21.6806 11.0683 21.7515 11.108 21.8112 11.1582Z" fill="black"/>
<rect id="Rectangle 4" x="0.25" y="0.25" width="34.5" height="34.5" rx="9.75" stroke="black" stroke-width="0.5"/>
</g>
</svg>
