<svg width="55" height="45" viewBox="0 0 55 45" fill="none" xmlns="http://www.w3.org/2000/svg">
<g id="Group 5">
<g id="Rectangle 12" filter="url(#filter0_bd_42_88)">
<rect x="3" y="2" width="47" height="37" rx="5" fill="#9B3434"/>
</g>
<path id="Vector" d="M31.6781 22.929C32.8884 21.2772 33.4305 19.2292 33.1959 17.1949C32.9613 15.1605 31.9673 13.2897 30.4128 11.9568C28.8583 10.6239 26.8579 9.92718 24.8119 10.006C22.7658 10.0849 20.825 10.9335 19.3776 12.3821C17.9303 13.8306 17.0832 15.7724 17.0058 17.8188C16.9284 19.8652 17.6265 21.8654 18.9603 23.4191C20.2941 24.9729 22.1654 25.9657 24.1996 26.1988C26.2339 26.432 28.2812 25.8884 29.9319 24.6767H29.9306C29.9681 24.7267 30.0081 24.7742 30.0531 24.8205L34.8654 29.6335C35.0998 29.868 35.4178 29.9999 35.7493 30C36.0809 30.0001 36.399 29.8685 36.6335 29.6341C36.8681 29.3997 36.9999 29.0817 37 28.7501C37.0001 28.4184 36.8685 28.1004 36.6341 27.8658L31.8218 23.0528C31.7771 23.0075 31.7291 22.9657 31.6781 22.9278V22.929ZM32.0006 18.1235C32.0006 19.0265 31.8227 19.9205 31.4773 20.7547C31.1318 21.5889 30.6254 22.3469 29.987 22.9854C29.3486 23.6239 28.5907 24.1303 27.7567 24.4759C26.9226 24.8214 26.0286 24.9992 25.1258 24.9992C24.223 24.9992 23.329 24.8214 22.495 24.4759C21.6609 24.1303 20.903 23.6239 20.2646 22.9854C19.6263 22.3469 19.1199 21.5889 18.7744 20.7547C18.4289 19.9205 18.2511 19.0265 18.2511 18.1235C18.2511 16.3 18.9754 14.5511 20.2646 13.2617C21.5539 11.9722 23.3025 11.2478 25.1258 11.2478C26.9491 11.2478 28.6977 11.9722 29.987 13.2617C31.2763 14.5511 32.0006 16.3 32.0006 18.1235Z" fill="white"/>
</g>
<defs>
<filter id="filter0_bd_42_88" x="-7" y="-8" width="67" height="57" filterUnits="userSpaceOnUse" color-interpolation-filters="sRGB">
<feFlood flood-opacity="0" result="BackgroundImageFix"/>
<feGaussianBlur in="BackgroundImageFix" stdDeviation="5"/>
<feComposite in2="SourceAlpha" operator="in" result="effect1_backgroundBlur_42_88"/>
<feColorMatrix in="SourceAlpha" type="matrix" values="0 0 0 0 0 0 0 0 0 0 0 0 0 0 0 0 0 0 127 0" result="hardAlpha"/>
<feOffset dx="1" dy="2"/>
<feGaussianBlur stdDeviation="2"/>
<feComposite in2="hardAlpha" operator="out"/>
<feColorMatrix type="matrix" values="0 0 0 0 0.607843 0 0 0 0 0.203922 0 0 0 0 0.203922 0 0 0 0.25 0"/>
<feBlend mode="normal" in2="effect1_backgroundBlur_42_88" result="effect2_dropShadow_42_88"/>
<feBlend mode="normal" in="SourceGraphic" in2="effect2_dropShadow_42_88" result="shape"/>
</filter>
</defs>
</svg>
