<svg width="11" height="17" viewBox="0 0 11 17" fill="none" xmlns="http://www.w3.org/2000/svg">
<path id="Vector" d="M10.47 9.6029L2.43127 16.6344C1.48398 17.4642 5.39198e-07 16.7898 5.39198e-07 15.5304V1.46738C-0.000241161 1.18553 0.08078 0.909577 0.233362 0.672578C0.385944 0.435579 0.603619 0.247576 0.860318 0.131084C1.11702 0.0145921 1.40186 -0.0254513 1.68074 0.0157494C1.95961 0.0569502 2.2207 0.177648 2.43273 0.36339L10.4685 7.39492C10.626 7.53253 10.7523 7.70224 10.8388 7.89265C10.9253 8.08306 10.97 8.28977 10.97 8.49891C10.97 8.70804 10.9253 8.91475 10.8388 9.10516C10.7523 9.29558 10.626 9.46528 10.4685 9.6029H10.47Z" fill="black"/>
</svg>
