<svg width="22" height="23" viewBox="0 0 22 23" fill="none" xmlns="http://www.w3.org/2000/svg">
<path fill-rule="evenodd" clip-rule="evenodd" d="M22 11.5C22 5.14922 17.0746 0 11 0C4.92534 0 0 5.14922 0 11.5C0 17.2395 4.02198 21.9973 9.28142 22.861V14.825H6.48769V11.5H9.28142V8.9658C9.28142 6.0839 10.9242 4.49096 13.4364 4.49096C14.6398 4.49096 15.899 4.71573 15.899 4.71573V7.5459H14.5114C13.1456 7.5459 12.7186 8.43214 12.7186 9.3426V11.4999H15.769L15.2817 14.8249H12.7185V22.8609C17.978 21.9989 21.9998 17.2411 21.9998 11.4999L22 11.5Z" fill="#1977F3"/>
<path fill-rule="evenodd" clip-rule="evenodd" d="M15.2818 14.8249L15.7691 11.4999H12.7187V9.34259C12.7187 8.43373 13.1441 7.5459 14.5115 7.5459H15.8991V4.71573C15.8991 4.71573 14.64 4.49094 13.4365 4.49094C10.9243 4.49094 9.28153 6.08231 9.28153 8.96579V11.5H6.48779V14.825H9.28153V22.861C9.84148 22.953 10.4154 23 11.0001 23C11.5848 23 12.1587 22.9514 12.7187 22.861V14.825H15.2819L15.2818 14.8249Z" fill="#FEFEFE"/>
</svg>
