<svg width="11" height="15" viewBox="0 0 11 15" fill="none" xmlns="http://www.w3.org/2000/svg">
<path id="Vector" fill-rule="evenodd" clip-rule="evenodd" d="M0.230774 0.169473C0.303741 0.115753 0.390424 0.0731311 0.485856 0.0440502C0.581288 0.0149692 0.683595 0 0.786918 0C0.89024 0 0.992547 0.0149692 1.08798 0.0440502C1.18341 0.0731311 1.27009 0.115753 1.34306 0.169473L10.7692 7.09174C10.8424 7.14532 10.9004 7.20898 10.94 7.27906C10.9796 7.34914 11 7.42427 11 7.50015C11 7.57603 10.9796 7.65116 10.94 7.72124C10.9004 7.79132 10.8424 7.85498 10.7692 7.90857L1.34306 14.8308C1.19556 14.9391 0.995512 15 0.786918 15C0.578323 15 0.378272 14.9391 0.230774 14.8308C0.0832752 14.7225 0.000411269 14.5756 0.000411269 14.4224C0.000411269 14.2692 0.0832752 14.1223 0.230774 14.014L9.10237 7.50015L0.230774 0.9863C0.157622 0.932715 0.0995832 0.869059 0.0599831 0.798977C0.0203831 0.728894 0 0.653763 0 0.577887C0 0.50201 0.0203831 0.426879 0.0599831 0.356797C0.0995832 0.286715 0.157622 0.223058 0.230774 0.169473Z" fill="#9B3434"/>
</svg>
