<svg width="20" height="21" viewBox="0 0 20 21" fill="none" xmlns="http://www.w3.org/2000/svg">
<g id="Group">
<path id="Vector" d="M19.8793 10.3737C19.8793 9.68438 19.8234 8.99131 19.7041 8.31314H10.139V12.2182H15.6165C15.3891 13.4777 14.6589 14.5918 13.5894 15.2997V17.8335H16.8573C18.7763 16.0673 19.8793 13.459 19.8793 10.3737Z" fill="#4285F4"/>
<path id="Vector_2" d="M10.139 20.2817C12.874 20.2817 15.1806 19.3837 16.861 17.8335L13.5932 15.2997C12.684 15.9183 11.5102 16.2686 10.1427 16.2686C7.49712 16.2686 5.25395 14.4837 4.44909 12.0841H1.07687V14.6961C2.79838 18.1206 6.30474 20.2817 10.139 20.2817Z" fill="#34A853"/>
<path id="Vector_3" d="M4.44535 12.0841C4.02056 10.8246 4.02056 9.46082 4.44535 8.20137V5.5893H1.07687C-0.36144 8.45475 -0.36144 11.8307 1.07687 14.6961L4.44535 12.0841Z" fill="#FBBC04"/>
<path id="Vector_4" d="M10.139 4.01311C11.5848 3.99076 12.9821 4.53477 14.0291 5.53341L16.9244 2.63814C15.0911 0.916645 12.6579 -0.0298099 10.139 -4.07279e-07C6.30472 -4.07279e-07 2.79838 2.1612 1.07687 5.5893L4.44536 8.20137C5.24648 5.79796 7.49338 4.01311 10.139 4.01311Z" fill="#EA4335"/>
</g>
</svg>
