<svg width="11" height="17" viewBox="0 0 11 17" fill="none" xmlns="http://www.w3.org/2000/svg">
<path id="Vector" d="M0.499918 9.6029L8.5372 16.6344C9.48432 17.4642 10.968 16.7898 10.968 15.5304V1.46738C10.9683 1.18553 10.8873 0.909577 10.7347 0.672578C10.5822 0.435579 10.3645 0.247576 10.1079 0.131084C9.85122 0.0145921 9.56642 -0.0254513 9.2876 0.0157494C9.00877 0.0569502 8.74773 0.177648 8.53574 0.36339L0.501384 7.39492C0.343909 7.53253 0.217695 7.70224 0.131218 7.89265C0.0447405 8.08306 0 8.28977 0 8.49891C0 8.70804 0.0447405 8.91475 0.131218 9.10516C0.217695 9.29558 0.343909 9.46528 0.501384 9.6029H0.499918Z" fill="black"/>
</svg>
