<svg width="20" height="17" viewBox="0 0 20 17" fill="none" xmlns="http://www.w3.org/2000/svg">
<g id="Twitter (icon &#226;&#128;&#148; Colour)">
<path id="Vector" d="M17.8035 4.11417C17.8156 4.28824 17.8156 4.4623 17.8156 4.63797C17.8156 9.99065 13.7407 16.1639 6.28959 16.1639V16.1607C4.08852 16.1639 1.93317 15.5334 0.0802307 14.3447C0.400284 14.3832 0.721942 14.4024 1.0444 14.4032C2.86847 14.4048 4.64039 13.7927 6.07542 12.6658C4.342 12.6328 2.82194 11.5027 2.29092 9.85267C2.89815 9.96978 3.52382 9.94573 4.11981 9.78289C2.22997 9.40107 0.870337 7.74064 0.870337 5.8123C0.870337 5.79465 0.870337 5.77781 0.870337 5.76097C1.43344 6.0746 2.06392 6.24866 2.70884 6.26791C0.928894 5.07834 0.38023 2.71043 1.4551 0.859091C3.51178 3.38984 6.54627 4.92834 9.80376 5.09118C9.47728 3.68423 9.92328 2.2099 10.9757 1.22085C12.6073 -0.312834 15.1733 -0.234225 16.7069 1.39652C17.6142 1.21765 18.4838 0.884759 19.2794 0.413101C18.9771 1.35081 18.3441 2.14733 17.4986 2.65348C18.3016 2.55882 19.0861 2.34385 19.8249 2.01577C19.281 2.83075 18.596 3.54064 17.8035 4.11417Z" fill="#1D9BF0"/>
</g>
</svg>
