<svg width="8" height="11" viewBox="0 0 8 11" fill="none" xmlns="http://www.w3.org/2000/svg">
<path fill-rule="evenodd" clip-rule="evenodd" d="M0.167835 0.12428C0.220903 0.0848852 0.283944 0.0536295 0.35335 0.0323035C0.422755 0.0109774 0.49716 0 0.572304 0C0.647447 0 0.721852 0.0109774 0.791258 0.0323035C0.860663 0.0536295 0.923705 0.0848852 0.976772 0.12428L7.83216 5.20061C7.88537 5.2399 7.92758 5.28659 7.95638 5.33798C7.98518 5.38937 8 5.44447 8 5.50011C8 5.55575 7.98518 5.61085 7.95638 5.66224C7.92758 5.71364 7.88537 5.76032 7.83216 5.79961L0.976772 10.8759C0.8695 10.9554 0.724009 11 0.572304 11C0.420599 11 0.275107 10.9554 0.167835 10.8759C0.0605638 10.7965 0.000299105 10.6888 0.000299105 10.5764C0.000299105 10.4641 0.0605638 10.3564 0.167835 10.2769L6.6199 5.50011L0.167835 0.723287C0.114634 0.683991 0.0724241 0.63731 0.0436241 0.585916C0.0148241 0.534522 0 0.479426 0 0.423784C0 0.368141 0.0148241 0.313045 0.0436241 0.261651C0.0724241 0.210257 0.114634 0.163576 0.167835 0.12428Z" fill="#9B3434"/>
</svg>
